<svg width="128" height="80" viewBox="0 0 128 80" fill="none" xmlns="http://www.w3.org/2000/svg">
<path d="M94.8406 80H25.9493C19.2663 79.9949 12.8443 77.4048 8.02778 72.7719C3.21127 68.139 0.373642 61.8225 0.10895 55.1447C-0.155743 48.4669 2.17302 41.9457 6.60772 36.9461C11.0424 31.9464 17.2392 28.8562 23.9009 28.3221C24.8508 21.6141 27.88 15.3727 32.5622 10.476C37.2444 5.57927 43.3439 2.27373 50.0027 1.02439C56.6615 -0.224948 63.5444 0.64479 69.6831 3.51124C75.8218 6.3777 80.9074 11.0966 84.2243 17.0041C90.3081 14.8981 96.8812 14.6521 103.105 16.2973C109.33 17.9425 114.923 21.4045 119.171 26.2416C123.419 31.0786 126.131 37.0716 126.959 43.456C127.787 49.8404 126.695 56.3269 123.822 62.088C122.136 67.293 118.844 71.8301 114.419 75.0481C109.994 78.2661 104.664 79.9997 99.1922 80H94.8406Z" fill="url(#paint0_linear_240_1327)"/>
<defs>
<linearGradient id="paint0_linear_240_1327" x1="63.6586" y1="0.468788" x2="100.597" y2="89.7764" gradientUnits="userSpaceOnUse">
<stop stop-color="white" stop-opacity="0.604"/>
<stop offset="1" stop-color="white" stop-opacity="0.2"/>
</linearGradient>
</defs>
</svg>
